<mxfile host="app.diagrams.net" modified="2021-05-16T07:58:06.173Z" agent="5.0 (Macintosh; Intel Mac OS X 10_14_6) AppleWebKit/537.36 (KHTML, like Gecko) Chrome/90.0.4430.212 Safari/537.36" etag="NjIXDvKhj0FgjWm6E-uP" version="14.6.11" type="github">
  <diagram name="Page-1" id="c4acf3e9-155e-7222-9cf6-157b1a14988f">
    <mxGraphModel dx="2698" dy="2073" grid="1" gridSize="10" guides="1" tooltips="1" connect="1" arrows="1" fold="1" page="1" pageScale="1" pageWidth="850" pageHeight="1100" background="#ffffff" math="0" shadow="0">
      <root>
        <mxCell id="0" />
        <mxCell id="1" parent="0" />
        <mxCell id="A4AHGjfi9aMV04wvf9Sm-22" value="" style="edgeStyle=orthogonalEdgeStyle;rounded=0;orthogonalLoop=1;jettySize=auto;html=1;" edge="1" parent="1" source="17acba5748e5396b-20" target="A4AHGjfi9aMV04wvf9Sm-18">
          <mxGeometry relative="1" as="geometry" />
        </mxCell>
        <mxCell id="A4AHGjfi9aMV04wvf9Sm-23" value="1:n" style="edgeLabel;html=1;align=center;verticalAlign=middle;resizable=0;points=[];" vertex="1" connectable="0" parent="A4AHGjfi9aMV04wvf9Sm-22">
          <mxGeometry x="0.025" y="3" relative="1" as="geometry">
            <mxPoint x="-3" as="offset" />
          </mxGeometry>
        </mxCell>
        <mxCell id="A4AHGjfi9aMV04wvf9Sm-28" value="" style="edgeStyle=orthogonalEdgeStyle;rounded=0;orthogonalLoop=1;jettySize=auto;html=1;" edge="1" parent="1" source="17acba5748e5396b-20" target="A4AHGjfi9aMV04wvf9Sm-24">
          <mxGeometry relative="1" as="geometry" />
        </mxCell>
        <mxCell id="A4AHGjfi9aMV04wvf9Sm-34" value="1:n" style="edgeLabel;html=1;align=center;verticalAlign=middle;resizable=0;points=[];" vertex="1" connectable="0" parent="A4AHGjfi9aMV04wvf9Sm-28">
          <mxGeometry x="-0.125" y="-3" relative="1" as="geometry">
            <mxPoint as="offset" />
          </mxGeometry>
        </mxCell>
        <mxCell id="A4AHGjfi9aMV04wvf9Sm-33" value="" style="edgeStyle=orthogonalEdgeStyle;rounded=0;orthogonalLoop=1;jettySize=auto;html=1;" edge="1" parent="1" source="17acba5748e5396b-20" target="A4AHGjfi9aMV04wvf9Sm-29">
          <mxGeometry relative="1" as="geometry" />
        </mxCell>
        <mxCell id="A4AHGjfi9aMV04wvf9Sm-35" value="1:1" style="edgeLabel;html=1;align=center;verticalAlign=middle;resizable=0;points=[];" vertex="1" connectable="0" parent="A4AHGjfi9aMV04wvf9Sm-33">
          <mxGeometry x="0.3" relative="1" as="geometry">
            <mxPoint as="offset" />
          </mxGeometry>
        </mxCell>
        <mxCell id="A4AHGjfi9aMV04wvf9Sm-40" value="" style="edgeStyle=orthogonalEdgeStyle;rounded=0;orthogonalLoop=1;jettySize=auto;html=1;" edge="1" parent="1" source="17acba5748e5396b-20" target="A4AHGjfi9aMV04wvf9Sm-36">
          <mxGeometry relative="1" as="geometry" />
        </mxCell>
        <mxCell id="17acba5748e5396b-20" value="ad_visualize_page_info（魔方页面表）" style="swimlane;html=1;fontStyle=0;childLayout=stackLayout;horizontal=1;startSize=26;fillColor=none;horizontalStack=0;resizeParent=1;resizeLast=0;collapsible=1;marginBottom=0;swimlaneFillColor=#ffffff;rounded=0;shadow=0;comic=0;labelBackgroundColor=none;strokeWidth=1;fontFamily=Verdana;fontSize=10;align=center;" parent="1" vertex="1">
          <mxGeometry x="200" y="130" width="280" height="190" as="geometry" />
        </mxCell>
        <mxCell id="17acba5748e5396b-21" value="experiment_id（灰度试验id）" style="text;html=1;strokeColor=none;fillColor=none;align=left;verticalAlign=top;spacingLeft=4;spacingRight=4;whiteSpace=wrap;overflow=hidden;rotatable=0;points=[[0,0.5],[1,0.5]];portConstraint=eastwest;" parent="17acba5748e5396b-20" vertex="1">
          <mxGeometry y="26" width="280" height="26" as="geometry" />
        </mxCell>
        <mxCell id="17acba5748e5396b-26" value="content（页面内容）" style="text;html=1;strokeColor=none;fillColor=none;align=left;verticalAlign=top;spacingLeft=4;spacingRight=4;whiteSpace=wrap;overflow=hidden;rotatable=0;points=[[0,0.5],[1,0.5]];portConstraint=eastwest;" parent="17acba5748e5396b-20" vertex="1">
          <mxGeometry y="52" width="280" height="26" as="geometry" />
        </mxCell>
        <mxCell id="A4AHGjfi9aMV04wvf9Sm-18" value="ad_visualize_page_auth（魔方页面授权表）" style="swimlane;html=1;fontStyle=0;childLayout=stackLayout;horizontal=1;startSize=26;fillColor=none;horizontalStack=0;resizeParent=1;resizeLast=0;collapsible=1;marginBottom=0;swimlaneFillColor=#ffffff;rounded=0;shadow=0;comic=0;labelBackgroundColor=none;strokeWidth=1;fontFamily=Verdana;fontSize=10;align=center;" vertex="1" parent="1">
          <mxGeometry x="200" y="400" width="280" height="190" as="geometry" />
        </mxCell>
        <mxCell id="A4AHGjfi9aMV04wvf9Sm-19" value="page_id（页面id）" style="text;html=1;strokeColor=none;fillColor=none;align=left;verticalAlign=top;spacingLeft=4;spacingRight=4;whiteSpace=wrap;overflow=hidden;rotatable=0;points=[[0,0.5],[1,0.5]];portConstraint=eastwest;" vertex="1" parent="A4AHGjfi9aMV04wvf9Sm-18">
          <mxGeometry y="26" width="280" height="26" as="geometry" />
        </mxCell>
        <mxCell id="A4AHGjfi9aMV04wvf9Sm-20" value="auth_to_oms_operator_id（被授权的运营人员ID）" style="text;html=1;strokeColor=none;fillColor=none;align=left;verticalAlign=top;spacingLeft=4;spacingRight=4;whiteSpace=wrap;overflow=hidden;rotatable=0;points=[[0,0.5],[1,0.5]];portConstraint=eastwest;" vertex="1" parent="A4AHGjfi9aMV04wvf9Sm-18">
          <mxGeometry y="52" width="280" height="26" as="geometry" />
        </mxCell>
        <mxCell id="A4AHGjfi9aMV04wvf9Sm-21" value="auth_status（授权状态）" style="text;html=1;strokeColor=none;fillColor=none;align=left;verticalAlign=top;spacingLeft=4;spacingRight=4;whiteSpace=wrap;overflow=hidden;rotatable=0;points=[[0,0.5],[1,0.5]];portConstraint=eastwest;" vertex="1" parent="A4AHGjfi9aMV04wvf9Sm-18">
          <mxGeometry y="78" width="280" height="26" as="geometry" />
        </mxCell>
        <mxCell id="A4AHGjfi9aMV04wvf9Sm-45" value="" style="edgeStyle=orthogonalEdgeStyle;rounded=0;orthogonalLoop=1;jettySize=auto;html=1;" edge="1" parent="1" source="A4AHGjfi9aMV04wvf9Sm-24" target="A4AHGjfi9aMV04wvf9Sm-41">
          <mxGeometry relative="1" as="geometry" />
        </mxCell>
        <mxCell id="A4AHGjfi9aMV04wvf9Sm-46" value="1:1" style="edgeLabel;html=1;align=center;verticalAlign=middle;resizable=0;points=[];" vertex="1" connectable="0" parent="A4AHGjfi9aMV04wvf9Sm-45">
          <mxGeometry x="-0.075" y="1" relative="1" as="geometry">
            <mxPoint as="offset" />
          </mxGeometry>
        </mxCell>
        <mxCell id="A4AHGjfi9aMV04wvf9Sm-24" value="ad_visualize_page_component（魔方页面组件表）" style="swimlane;html=1;fontStyle=0;childLayout=stackLayout;horizontal=1;startSize=26;fillColor=none;horizontalStack=0;resizeParent=1;resizeLast=0;collapsible=1;marginBottom=0;swimlaneFillColor=#ffffff;rounded=0;shadow=0;comic=0;labelBackgroundColor=none;strokeWidth=1;fontFamily=Verdana;fontSize=10;align=center;" vertex="1" parent="1">
          <mxGeometry x="560" y="130" width="280" height="190" as="geometry" />
        </mxCell>
        <mxCell id="A4AHGjfi9aMV04wvf9Sm-25" value="page_id（页面id）" style="text;html=1;strokeColor=none;fillColor=none;align=left;verticalAlign=top;spacingLeft=4;spacingRight=4;whiteSpace=wrap;overflow=hidden;rotatable=0;points=[[0,0.5],[1,0.5]];portConstraint=eastwest;" vertex="1" parent="A4AHGjfi9aMV04wvf9Sm-24">
          <mxGeometry y="26" width="280" height="26" as="geometry" />
        </mxCell>
        <mxCell id="A4AHGjfi9aMV04wvf9Sm-29" value="ad_visualize_page_experiment（魔方ABTest实验表）" style="swimlane;html=1;fontStyle=0;childLayout=stackLayout;horizontal=1;startSize=26;fillColor=none;horizontalStack=0;resizeParent=1;resizeLast=0;collapsible=1;marginBottom=0;swimlaneFillColor=#ffffff;rounded=0;shadow=0;comic=0;labelBackgroundColor=none;strokeWidth=1;fontFamily=Verdana;fontSize=10;align=center;" vertex="1" parent="1">
          <mxGeometry x="-160" y="130" width="280" height="190" as="geometry" />
        </mxCell>
        <mxCell id="A4AHGjfi9aMV04wvf9Sm-30" value="experiment_id（灰度试验id）" style="text;html=1;strokeColor=none;fillColor=none;align=left;verticalAlign=top;spacingLeft=4;spacingRight=4;whiteSpace=wrap;overflow=hidden;rotatable=0;points=[[0,0.5],[1,0.5]];portConstraint=eastwest;" vertex="1" parent="A4AHGjfi9aMV04wvf9Sm-29">
          <mxGeometry y="26" width="280" height="26" as="geometry" />
        </mxCell>
        <mxCell id="A4AHGjfi9aMV04wvf9Sm-31" value="name（试验名）" style="text;html=1;strokeColor=none;fillColor=none;align=left;verticalAlign=top;spacingLeft=4;spacingRight=4;whiteSpace=wrap;overflow=hidden;rotatable=0;points=[[0,0.5],[1,0.5]];portConstraint=eastwest;" vertex="1" parent="A4AHGjfi9aMV04wvf9Sm-29">
          <mxGeometry y="52" width="280" height="26" as="geometry" />
        </mxCell>
        <mxCell id="A4AHGjfi9aMV04wvf9Sm-36" value="ad_visualize_publish_page_info（魔方发布页面表）" style="swimlane;html=1;fontStyle=0;childLayout=stackLayout;horizontal=1;startSize=26;fillColor=none;horizontalStack=0;resizeParent=1;resizeLast=0;collapsible=1;marginBottom=0;swimlaneFillColor=#ffffff;rounded=0;shadow=0;comic=0;labelBackgroundColor=none;strokeWidth=1;fontFamily=Verdana;fontSize=10;align=center;" vertex="1" parent="1">
          <mxGeometry x="200" y="-140" width="280" height="190" as="geometry" />
        </mxCell>
        <mxCell id="A4AHGjfi9aMV04wvf9Sm-37" value="id（&lt;span style=&quot;font-family: &amp;#34;verdana&amp;#34; ; font-size: 10px ; text-align: center&quot;&gt;ad_visualize_page_info的id&lt;/span&gt;）" style="text;html=1;strokeColor=none;fillColor=none;align=left;verticalAlign=top;spacingLeft=4;spacingRight=4;whiteSpace=wrap;overflow=hidden;rotatable=0;points=[[0,0.5],[1,0.5]];portConstraint=eastwest;" vertex="1" parent="A4AHGjfi9aMV04wvf9Sm-36">
          <mxGeometry y="26" width="280" height="26" as="geometry" />
        </mxCell>
        <mxCell id="A4AHGjfi9aMV04wvf9Sm-41" value="ad_visualize_publish_page_component（魔方发布页面组件表）" style="swimlane;html=1;fontStyle=0;childLayout=stackLayout;horizontal=1;startSize=26;fillColor=none;horizontalStack=0;resizeParent=1;resizeLast=0;collapsible=1;marginBottom=0;swimlaneFillColor=#ffffff;rounded=0;shadow=0;comic=0;labelBackgroundColor=none;strokeWidth=1;fontFamily=Verdana;fontSize=10;align=center;" vertex="1" parent="1">
          <mxGeometry x="560" y="400" width="280" height="190" as="geometry" />
        </mxCell>
        <mxCell id="A4AHGjfi9aMV04wvf9Sm-42" value="id（ad_visaulize_page_component的id）" style="text;html=1;strokeColor=none;fillColor=none;align=left;verticalAlign=top;spacingLeft=4;spacingRight=4;whiteSpace=wrap;overflow=hidden;rotatable=0;points=[[0,0.5],[1,0.5]];portConstraint=eastwest;" vertex="1" parent="A4AHGjfi9aMV04wvf9Sm-41">
          <mxGeometry y="26" width="280" height="26" as="geometry" />
        </mxCell>
        <mxCell id="A4AHGjfi9aMV04wvf9Sm-47" value="ad_visualize_spectacle_image（&lt;span style=&quot;background-color: rgb(242 , 244 , 245) ; color: rgba(0 , 0 , 0 , 0.65) ; font-family: , &amp;#34;consolas&amp;#34; , &amp;#34;liberation mono&amp;#34; , &amp;#34;menlo&amp;#34; , &amp;#34;courier&amp;#34; , monospace ; font-size: 0.9em&quot;&gt;场景图片信息表&lt;/span&gt;&lt;span&gt;）&lt;/span&gt;" style="swimlane;html=1;fontStyle=0;childLayout=stackLayout;horizontal=1;startSize=26;fillColor=none;horizontalStack=0;resizeParent=1;resizeLast=0;collapsible=1;marginBottom=0;swimlaneFillColor=#ffffff;rounded=0;shadow=0;comic=0;labelBackgroundColor=none;strokeWidth=1;fontFamily=Verdana;fontSize=10;align=center;" vertex="1" parent="1">
          <mxGeometry x="-170" y="610" width="280" height="190" as="geometry" />
        </mxCell>
        <mxCell id="A4AHGjfi9aMV04wvf9Sm-48" value="spectacle_type（落地页场景类型）" style="text;html=1;strokeColor=none;fillColor=none;align=left;verticalAlign=top;spacingLeft=4;spacingRight=4;whiteSpace=wrap;overflow=hidden;rotatable=0;points=[[0,0.5],[1,0.5]];portConstraint=eastwest;" vertex="1" parent="A4AHGjfi9aMV04wvf9Sm-47">
          <mxGeometry y="26" width="280" height="26" as="geometry" />
        </mxCell>
        <mxCell id="A4AHGjfi9aMV04wvf9Sm-49" value="component_type（组件类型）" style="text;html=1;strokeColor=none;fillColor=none;align=left;verticalAlign=top;spacingLeft=4;spacingRight=4;whiteSpace=wrap;overflow=hidden;rotatable=0;points=[[0,0.5],[1,0.5]];portConstraint=eastwest;" vertex="1" parent="A4AHGjfi9aMV04wvf9Sm-47">
          <mxGeometry y="52" width="280" height="26" as="geometry" />
        </mxCell>
        <mxCell id="A4AHGjfi9aMV04wvf9Sm-50" value="image_info（图片信息）" style="text;html=1;strokeColor=none;fillColor=none;align=left;verticalAlign=top;spacingLeft=4;spacingRight=4;whiteSpace=wrap;overflow=hidden;rotatable=0;points=[[0,0.5],[1,0.5]];portConstraint=eastwest;" vertex="1" parent="A4AHGjfi9aMV04wvf9Sm-47">
          <mxGeometry y="78" width="280" height="26" as="geometry" />
        </mxCell>
        <mxCell id="A4AHGjfi9aMV04wvf9Sm-55" value="reward_type（奖励类型）" style="text;html=1;strokeColor=none;fillColor=none;align=left;verticalAlign=top;spacingLeft=4;spacingRight=4;whiteSpace=wrap;overflow=hidden;rotatable=0;points=[[0,0.5],[1,0.5]];portConstraint=eastwest;" vertex="1" parent="A4AHGjfi9aMV04wvf9Sm-47">
          <mxGeometry y="104" width="280" height="26" as="geometry" />
        </mxCell>
        <mxCell id="A4AHGjfi9aMV04wvf9Sm-56" value="template_type（样式类型）" style="text;html=1;strokeColor=none;fillColor=none;align=left;verticalAlign=top;spacingLeft=4;spacingRight=4;whiteSpace=wrap;overflow=hidden;rotatable=0;points=[[0,0.5],[1,0.5]];portConstraint=eastwest;" vertex="1" parent="A4AHGjfi9aMV04wvf9Sm-47">
          <mxGeometry y="130" width="280" height="26" as="geometry" />
        </mxCell>
        <mxCell id="A4AHGjfi9aMV04wvf9Sm-51" value="&lt;span style=&quot;font-size: 10px&quot;&gt;ad_visualize_decor_material（魔方样式素材表&lt;/span&gt;&lt;span style=&quot;font-size: 10px&quot;&gt;）&lt;/span&gt;" style="swimlane;html=1;fontStyle=0;childLayout=stackLayout;horizontal=1;startSize=26;fillColor=none;horizontalStack=0;resizeParent=1;resizeLast=0;collapsible=1;marginBottom=0;swimlaneFillColor=#ffffff;rounded=0;shadow=0;comic=0;labelBackgroundColor=none;strokeWidth=1;fontFamily=Verdana;fontSize=10;align=center;" vertex="1" parent="1">
          <mxGeometry x="200" y="610" width="280" height="190" as="geometry" />
        </mxCell>
        <mxCell id="A4AHGjfi9aMV04wvf9Sm-52" value="decor_material_type（样式类型）" style="text;html=1;strokeColor=none;fillColor=none;align=left;verticalAlign=top;spacingLeft=4;spacingRight=4;whiteSpace=wrap;overflow=hidden;rotatable=0;points=[[0,0.5],[1,0.5]];portConstraint=eastwest;" vertex="1" parent="A4AHGjfi9aMV04wvf9Sm-51">
          <mxGeometry y="26" width="280" height="26" as="geometry" />
        </mxCell>
        <mxCell id="A4AHGjfi9aMV04wvf9Sm-53" value="content（样式内容）" style="text;html=1;strokeColor=none;fillColor=none;align=left;verticalAlign=top;spacingLeft=4;spacingRight=4;whiteSpace=wrap;overflow=hidden;rotatable=0;points=[[0,0.5],[1,0.5]];portConstraint=eastwest;" vertex="1" parent="A4AHGjfi9aMV04wvf9Sm-51">
          <mxGeometry y="52" width="280" height="26" as="geometry" />
        </mxCell>
      </root>
    </mxGraphModel>
  </diagram>
</mxfile>
